<?xml version="1.0" encoding="UTF-8" standalone="no"?>
<svg
   width="320pt"
   height="320pt"
   viewBox="0 0 320 320"
   version="1.1"
   id="svg119"
   sodipodi:docname="kompas.svg"
   inkscape:version="1.3.2 (091e20e, 2023-11-25)"
   xmlns:inkscape="http://www.inkscape.org/namespaces/inkscape"
   xmlns:sodipodi="http://sodipodi.sourceforge.net/DTD/sodipodi-0.dtd"
   xmlns:xlink="http://www.w3.org/1999/xlink"
   xmlns="http://www.w3.org/2000/svg"
   xmlns:svg="http://www.w3.org/2000/svg"
   xmlns:rdf="http://www.w3.org/1999/02/22-rdf-syntax-ns#"
   xmlns:cc="http://creativecommons.org/ns#"
   xmlns:dc="http://purl.org/dc/elements/1.1/">
  <sodipodi:namedview
     id="namedview119"
     pagecolor="#ffffff"
     bordercolor="currentColor"
     borderopacity="0.25"
     inkscape:showpageshadow="2"
     inkscape:pageopacity="0.0"
     inkscape:pagecheckerboard="0"
     inkscape:deskcolor="#d1d1d1"
     inkscape:document-units="pt"
     inkscape:zoom="1.4094906"
     inkscape:cx="132.67204"
     inkscape:cy="114.22566"
     inkscape:window-width="1392"
     inkscape:window-height="1051"
     inkscape:window-x="0"
     inkscape:window-y="38"
     inkscape:window-maximized="0"
     inkscape:current-layer="axes_1" />
  <metadata
     id="metadata1">
    <rdf:RDF>
      <cc:Work>
        <dc:type
           rdf:resource="http://purl.org/dc/dcmitype/StillImage" />
        <dc:date>2023-12-30T20:16:39.215747</dc:date>
        <dc:format>image/svg+xml</dc:format>
        <dc:creator>
          <cc:Agent>
            <dc:title>Matplotlib v3.8.2, https://matplotlib.org/</dc:title>
          </cc:Agent>
        </dc:creator>
      </cc:Work>
    </rdf:RDF>
  </metadata>
  <defs
     id="defs1">
    <style
       type="text/css"
       id="style1">
       *{stroke-linejoin: round; stroke-linecap: butt}
       #figure_1 {
         color: #000;
     }
     @media (prefers-color-scheme: dark) {
         #figure_1 {
             color: #fff !important;
         }
     }
      </style>
  </defs>
  <g
     id="figure_1"
     transform="translate(-20,-20)">
    <g
       id="axes_1"
       transform="translate(-40.518749,-37.096875)">
      <g
         id="patch_2">
        <path
           d="m 221.4,329.04 c 29.40572,0 57.61102,-11.68302 78.404,-32.476 20.79298,-20.79298 32.476,-48.99828 32.476,-78.404 0,-29.40572 -11.68302,-57.61102 -32.476,-78.404 -20.79298,-20.79298 -48.99828,-32.476 -78.404,-32.476 -29.40572,0 -57.61102,11.68302 -78.404,32.476 -20.79298,20.79298 -32.476,48.99828 -32.476,78.404 0,29.40572 11.68302,57.61102 32.476,78.404 20.79298,20.79298 48.99828,32.476 78.404,32.476 z"
           clip-path="url(#p4a0b5bc692)"
           style="fill:none;stroke:currentColor;stroke-linejoin:miter"
           id="path2" />
      </g>
      <g
         id="line2d_1">
        <path
           d="M 221.4,329.04 V 107.28"
           clip-path="url(#p4a0b5bc692)"
           style="fill:none;stroke:currentColor;stroke-width:1.5;stroke-linecap:square"
           id="path3" />
      </g>
      <g
         id="line2d_2">
        <path
           d="M 110.52,218.16 H 332.28"
           clip-path="url(#p4a0b5bc692)"
           style="fill:none;stroke:currentColor;stroke-width:1.5;stroke-linecap:square"
           id="path4" />
      </g>
      <g
         id="line2d_3">
        <path
           d="M 221.4,112.824 V 107.28"
           clip-path="url(#p4a0b5bc692)"
           style="fill:none;stroke:currentColor;stroke-width:1.5;stroke-linecap:square"
           id="path5" />
      </g>
      <g
         id="line2d_4">
        <path
           d="m 248.66296,116.41324 1.4349,-5.3551"
           clip-path="url(#p4a0b5bc692)"
           style="fill:none;stroke:currentColor;stroke-width:1.5;stroke-linecap:square"
           id="path6" />
      </g>
      <g
         id="line2d_5">
        <path
           d="m 274.068,126.93635 2.772,-4.80125"
           clip-path="url(#p4a0b5bc692)"
           style="fill:none;stroke:currentColor;stroke-width:1.5;stroke-linecap:square"
           id="path7" />
      </g>
      <g
         id="line2d_6">
        <path
           d="m 295.8838,143.6762 3.9202,-3.9202"
           clip-path="url(#p4a0b5bc692)"
           style="fill:none;stroke:currentColor;stroke-width:1.5;stroke-linecap:square"
           id="path8" />
      </g>
      <g
         id="line2d_7">
        <path
           d="m 312.62365,165.492 4.80125,-2.772"
           clip-path="url(#p4a0b5bc692)"
           style="fill:none;stroke:currentColor;stroke-width:1.5;stroke-linecap:square"
           id="path9" />
      </g>
      <g
         id="line2d_8">
        <path
           d="m 323.14676,190.89704 5.3551,-1.4349"
           clip-path="url(#p4a0b5bc692)"
           style="fill:none;stroke:currentColor;stroke-width:1.5;stroke-linecap:square"
           id="path10" />
      </g>
      <g
         id="line2d_9">
        <path
           d="m 326.736,218.16 h 5.544"
           clip-path="url(#p4a0b5bc692)"
           style="fill:none;stroke:currentColor;stroke-width:1.5;stroke-linecap:square"
           id="path11" />
      </g>
      <g
         id="line2d_10">
        <path
           d="m 323.14676,245.42296 5.3551,1.4349"
           clip-path="url(#p4a0b5bc692)"
           style="fill:none;stroke:currentColor;stroke-width:1.5;stroke-linecap:square"
           id="path12" />
      </g>
      <g
         id="line2d_11">
        <path
           d="m 312.62365,270.828 4.80125,2.772"
           clip-path="url(#p4a0b5bc692)"
           style="fill:none;stroke:currentColor;stroke-width:1.5;stroke-linecap:square"
           id="path13" />
      </g>
      <g
         id="line2d_12">
        <path
           d="m 295.8838,292.6438 3.9202,3.9202"
           clip-path="url(#p4a0b5bc692)"
           style="fill:none;stroke:currentColor;stroke-width:1.5;stroke-linecap:square"
           id="path14" />
      </g>
      <g
         id="line2d_13">
        <path
           d="m 274.068,309.38365 2.772,4.80125"
           clip-path="url(#p4a0b5bc692)"
           style="fill:none;stroke:currentColor;stroke-width:1.5;stroke-linecap:square"
           id="path15" />
      </g>
      <g
         id="line2d_14">
        <path
           d="m 248.66296,319.90676 1.4349,5.3551"
           clip-path="url(#p4a0b5bc692)"
           style="fill:none;stroke:currentColor;stroke-width:1.5;stroke-linecap:square"
           id="path16" />
      </g>
      <g
         id="line2d_15">
        <path
           d="m 221.4,323.496 v 5.544"
           clip-path="url(#p4a0b5bc692)"
           style="fill:none;stroke:currentColor;stroke-width:1.5;stroke-linecap:square"
           id="path17" />
      </g>
      <g
         id="line2d_16">
        <path
           d="m 194.13704,319.90676 -1.4349,5.3551"
           clip-path="url(#p4a0b5bc692)"
           style="fill:none;stroke:currentColor;stroke-width:1.5;stroke-linecap:square"
           id="path18" />
      </g>
      <g
         id="line2d_17">
        <path
           d="m 168.732,309.38365 -2.772,4.80125"
           clip-path="url(#p4a0b5bc692)"
           style="fill:none;stroke:currentColor;stroke-width:1.5;stroke-linecap:square"
           id="path19" />
      </g>
      <g
         id="line2d_18">
        <path
           d="m 146.9162,292.6438 -3.9202,3.9202"
           clip-path="url(#p4a0b5bc692)"
           style="fill:none;stroke:currentColor;stroke-width:1.5;stroke-linecap:square"
           id="path20" />
      </g>
      <g
         id="line2d_19">
        <path
           d="M 130.17635,270.828 125.3751,273.6"
           clip-path="url(#p4a0b5bc692)"
           style="fill:none;stroke:currentColor;stroke-width:1.5;stroke-linecap:square"
           id="path21" />
      </g>
      <g
         id="line2d_20">
        <path
           d="m 119.65324,245.42296 -5.3551,1.4349"
           clip-path="url(#p4a0b5bc692)"
           style="fill:none;stroke:currentColor;stroke-width:1.5;stroke-linecap:square"
           id="path22" />
      </g>
      <g
         id="line2d_21">
        <path
           d="M 116.064,218.16 H 110.52"
           clip-path="url(#p4a0b5bc692)"
           style="fill:none;stroke:currentColor;stroke-width:1.5;stroke-linecap:square"
           id="path23" />
      </g>
      <g
         id="line2d_22">
        <path
           d="m 119.65324,190.89704 -5.3551,-1.4349"
           clip-path="url(#p4a0b5bc692)"
           style="fill:none;stroke:currentColor;stroke-width:1.5;stroke-linecap:square"
           id="path24" />
      </g>
      <g
         id="line2d_23">
        <path
           d="M 130.17635,165.492 125.3751,162.72"
           clip-path="url(#p4a0b5bc692)"
           style="fill:none;stroke:currentColor;stroke-width:1.5;stroke-linecap:square"
           id="path25" />
      </g>
      <g
         id="line2d_24">
        <path
           d="M 146.9162,143.6762 142.996,139.756"
           clip-path="url(#p4a0b5bc692)"
           style="fill:none;stroke:currentColor;stroke-width:1.5;stroke-linecap:square"
           id="path26" />
      </g>
      <g
         id="line2d_25">
        <path
           d="M 168.732,126.93635 165.96,122.1351"
           clip-path="url(#p4a0b5bc692)"
           style="fill:none;stroke:currentColor;stroke-width:1.5;stroke-linecap:square"
           id="path27" />
      </g>
      <g
         id="line2d_26">
        <path
           d="m 194.13704,116.41324 -1.4349,-5.3551"
           clip-path="url(#p4a0b5bc692)"
           style="fill:none;stroke:currentColor;stroke-width:1.5;stroke-linecap:square"
           id="path28" />
      </g>
      <g
         id="text_1">
        <!-- 0° -->
        <g
           transform="matrix(0.1,0,0,-0.1,215.71875,93.407375)"
           id="g29">
          <defs
             id="defs28">
            <path
               id="DejaVuSans-30"
               d="m 2034,4250 q -487,0 -733,-480 -245,-479 -245,-1442 0,-959 245,-1439 246,-480 733,-480 491,0 736,480 246,480 246,1439 0,963 -246,1442 -245,480 -736,480 z m 0,500 q 785,0 1199,-621 414,-620 414,-1801 0,-1178 -414,-1799 -414,-620 -1199,-620 -784,0 -1198,620 -414,621 -414,1799 0,1181 414,1801 414,621 1198,621 z"
               transform="scale(0.015625)" style="fill: currentColor;" />
            <path
               id="DejaVuSans-b0"
               d="m 1600,4347 q -250,0 -422,-174 -172,-173 -172,-423 0,-247 172,-417 172,-170 422,-170 250,0 422,170 172,170 172,417 0,247 -174,422 -173,175 -420,175 z m 0,403 q 200,0 384,-77 185,-76 319,-220 144,-140 216,-319 72,-178 72,-384 0,-412 -289,-698 -289,-286 -708,-286 -422,0 -704,281 -281,281 -281,703 0,419 287,709 288,291 704,291 z"
               transform="scale(0.015625)" style="fill: currentColor;" />
          </defs>
          <use
             xlink:href="#DejaVuSans-30"
             id="use28" />
          <use
             xlink:href="#DejaVuSans-b0"
             x="63.623047"
             id="use29" />
        </g>
      </g>
      <g
         id="text_2">
        <!-- 15° -->
        <g
           transform="matrix(0.1,0,0,-0.1,245.54003,97.752241)"
           id="g32">
          <defs
             id="defs29">
            <path
               id="DejaVuSans-31"
               d="M 794,531 H 1825 V 4091 L 703,3866 v 575 l 1116,225 h 631 V 531 H 3481 V 0 H 794 Z"
               transform="scale(0.015625)" style="fill: currentColor;" />
            <path
               id="DejaVuSans-35"
               d="M 691,4666 H 3169 V 4134 H 1269 V 2991 q 137,47 274,70 138,23 276,23 781,0 1237,-428 457,-428 457,-1159 Q 3513,744 3044,326 2575,-91 1722,-91 1428,-91 1123,-41 819,9 494,109 v 635 q 281,-153 581,-228 300,-75 634,-75 541,0 856,284 316,284 316,772 0,487 -316,771 -315,285 -856,285 -253,0 -505,-56 -251,-56 -513,-175 z"
               transform="scale(0.015625)" style="fill: currentColor;" />
          </defs>
          <use
             xlink:href="#DejaVuSans-31"
             id="use30" />
          <use
             xlink:href="#DejaVuSans-35"
             x="63.623047"
             id="use31" />
          <use
             xlink:href="#DejaVuSans-b0"
             x="127.24609"
             id="use32" />
        </g>
      </g>
      <g
         id="text_3">
        <!-- 30° -->
        <g
           transform="matrix(0.1,0,0,-0.1,276.2935,110.49074)"
           id="g35">
          <defs
             id="defs32">
            <path
               id="DejaVuSans-33"
               d="m 2597,2516 q 453,-97 707,-404 255,-306 255,-756 0,-690 -475,-1069 -475,-378 -1350,-378 -293,0 -604,58 -311,58 -642,174 v 609 q 262,-153 574,-231 313,-78 654,-78 593,0 904,234 311,234 311,681 0,413 -289,645 -289,233 -804,233 h -544 v 519 h 569 q 465,0 712,186 247,186 247,536 0,359 -255,551 -254,193 -729,193 -260,0 -557,-57 -297,-56 -653,-174 v 562 q 360,100 674,150 314,50 592,50 719,0 1137,-327 419,-326 419,-882 0,-388 -222,-655 -222,-267 -631,-370 z"
               transform="scale(0.015625)" style="fill: currentColor;" />
          </defs>
          <use
             xlink:href="#DejaVuSans-33"
             id="use33" />
          <use
             xlink:href="#DejaVuSans-30"
             x="63.623047"
             id="use34" />
          <use
             xlink:href="#DejaVuSans-b0"
             x="127.24609"
             id="use35" />
        </g>
      </g>
      <g
         id="text_4">
        <!-- 45° -->
        <g
           transform="matrix(0.1,0,0,-0.1,302.7021,130.75477)"
           id="g38">
          <defs
             id="defs35">
            <path
               id="DejaVuSans-34"
               d="M 2419,4116 825,1625 h 1594 z m -166,550 h 794 V 1625 h 666 V 1100 H 3047 V 0 H 2419 V 1100 H 313 v 609 z"
               transform="scale(0.015625)" style="fill: currentColor;" />
          </defs>
          <use
             xlink:href="#DejaVuSans-34"
             id="use36" />
          <use
             xlink:href="#DejaVuSans-35"
             x="63.623047"
             id="use37" />
          <use
             xlink:href="#DejaVuSans-b0"
             x="127.24609"
             id="use38" />
        </g>
      </g>
      <g
         id="text_5">
        <!-- 60° -->
        <g
           transform="matrix(0.1,0,0,-0.1,322.96613,157.16337)"
           id="g41">
          <defs
             id="defs38">
            <path
               id="DejaVuSans-36"
               d="m 2113,2584 q -425,0 -674,-291 -248,-290 -248,-796 0,-503 248,-796 249,-292 674,-292 425,0 673,292 248,293 248,796 0,506 -248,796 -248,291 -673,291 z m 1253,1979 v -575 q -238,112 -480,171 -242,60 -480,60 -625,0 -955,-422 -329,-422 -376,-1275 184,272 462,417 279,145 613,145 703,0 1111,-427 408,-426 408,-1160 0,-719 -425,-1154 -425,-434 -1131,-434 -810,0 -1238,620 -428,621 -428,1799 0,1106 525,1764 525,658 1409,658 238,0 480,-47 242,-47 505,-140 z"
               transform="scale(0.015625)" style="fill: currentColor;" />
          </defs>
          <use
             xlink:href="#DejaVuSans-36"
             id="use39" />
          <use
             xlink:href="#DejaVuSans-30"
             x="63.623047"
             id="use40" />
          <use
             xlink:href="#DejaVuSans-b0"
             x="127.24609"
             id="use41" />
        </g>
      </g>
      <g
         id="text_6">
        <!-- 75° -->
        <g
           transform="matrix(0.1,0,0,-0.1,335.70463,187.91684)"
           id="g44">
          <defs
             id="defs41">
            <path
               id="DejaVuSans-37"
               d="M 525,4666 H 3525 V 4397 L 1831,0 H 1172 L 2766,4134 H 525 Z"
               transform="scale(0.015625)" style="fill: currentColor;" />
          </defs>
          <use
             xlink:href="#DejaVuSans-37"
             id="use42" />
          <use
             xlink:href="#DejaVuSans-35"
             x="63.623047"
             id="use43" />
          <use
             xlink:href="#DejaVuSans-b0"
             x="127.24609"
             id="use44" />
        </g>
      </g>
      <g
         id="text_7">
        <!-- 90° -->
        <g
           transform="matrix(0.1,0,0,-0.1,340.0495,220.91937)"
           id="g47">
          <defs
             id="defs44">
            <path
               id="DejaVuSans-39"
               d="m 703,97 v 575 q 238,-113 481,-172 244,-59 479,-59 625,0 954,420 330,420 377,1277 -181,-269 -460,-413 -278,-144 -615,-144 -700,0 -1108,423 -408,424 -408,1159 0,718 425,1152 425,435 1131,435 810,0 1236,-621 427,-620 427,-1801 Q 3622,1225 3098,567 2575,-91 1691,-91 1453,-91 1209,-44 966,3 703,97 Z m 1256,1978 q 425,0 673,290 249,291 249,798 0,503 -249,795 -248,292 -673,292 -425,0 -673,-292 -248,-292 -248,-795 0,-507 248,-798 248,-290 673,-290 z"
               transform="scale(0.015625)" style="fill: currentColor;" />
          </defs>
          <use
             xlink:href="#DejaVuSans-39"
             id="use45" />
          <use
             xlink:href="#DejaVuSans-30"
             x="63.623047"
             id="use46" />
          <use
             xlink:href="#DejaVuSans-b0"
             x="127.24609"
             id="use47" />
        </g>
      </g>
      <g
         id="text_8">
        <!-- 105° -->
        <g
           transform="matrix(0.1,0,0,-0.1,332.52338,253.92191)"
           id="g51">
          <use
             xlink:href="#DejaVuSans-31"
             id="use48" />
          <use
             xlink:href="#DejaVuSans-30"
             x="63.623047"
             id="use49" />
          <use
             xlink:href="#DejaVuSans-35"
             x="127.24609"
             id="use50" />
          <use
             xlink:href="#DejaVuSans-b0"
             x="190.86914"
             id="use51" />
        </g>
      </g>
      <g
         id="text_9">
        <!-- 120° -->
        <g
           transform="matrix(0.1,0,0,-0.1,319.78488,284.67537)"
           id="g55">
          <defs
             id="defs51">
            <path
               id="DejaVuSans-32"
               d="M 1228,531 H 3431 V 0 H 469 v 531 q 359,372 979,998 621,627 780,809 303,340 423,576 121,236 121,464 0,372 -261,606 -261,235 -680,235 -297,0 -627,-103 -329,-103 -704,-313 v 638 q 381,153 712,231 332,78 607,78 725,0 1156,-363 431,-362 431,-968 0,-288 -108,-546 -107,-257 -392,-607 -78,-91 -497,-524 Q 1991,1309 1228,531 Z"
               transform="scale(0.015625)" style="fill: currentColor;" />
          </defs>
          <use
             xlink:href="#DejaVuSans-31"
             id="use52" />
          <use
             xlink:href="#DejaVuSans-32"
             x="63.623047"
             id="use53" />
          <use
             xlink:href="#DejaVuSans-30"
             x="127.24609"
             id="use54" />
          <use
             xlink:href="#DejaVuSans-b0"
             x="190.86914"
             id="use55" />
        </g>
      </g>
      <g
         id="text_10">
        <!-- 135° -->
        <g
           transform="matrix(0.1,0,0,-0.1,299.52085,311.08397)"
           id="g59">
          <use
             xlink:href="#DejaVuSans-31"
             id="use56" />
          <use
             xlink:href="#DejaVuSans-33"
             x="63.623047"
             id="use57" />
          <use
             xlink:href="#DejaVuSans-35"
             x="127.24609"
             id="use58" />
          <use
             xlink:href="#DejaVuSans-b0"
             x="190.86914"
             id="use59" />
        </g>
      </g>
      <g
         id="text_11">
        <!-- 150° -->
        <g
           transform="matrix(0.1,0,0,-0.1,273.11225,331.34801)"
           id="g63">
          <use
             xlink:href="#DejaVuSans-31"
             id="use60" />
          <use
             xlink:href="#DejaVuSans-35"
             x="63.623047"
             id="use61" />
          <use
             xlink:href="#DejaVuSans-30"
             x="127.24609"
             id="use62" />
          <use
             xlink:href="#DejaVuSans-b0"
             x="190.86914"
             id="use63" />
        </g>
      </g>
      <g
         id="text_12">
        <!-- 165° -->
        <g
           transform="matrix(0.1,0,0,-0.1,242.35878,344.08651)"
           id="g67">
          <use
             xlink:href="#DejaVuSans-31"
             id="use64" />
          <use
             xlink:href="#DejaVuSans-36"
             x="63.623047"
             id="use65" />
          <use
             xlink:href="#DejaVuSans-35"
             x="127.24609"
             id="use66" />
          <use
             xlink:href="#DejaVuSans-b0"
             x="190.86914"
             id="use67" />
        </g>
      </g>
      <g
         id="text_13">
        <!-- 180° -->
        <g
           transform="matrix(0.1,0,0,-0.1,209.35625,348.43137)"
           id="g71">
          <defs
             id="defs67">
            <path
               id="DejaVuSans-38"
               d="m 2034,2216 q -450,0 -708,-241 -257,-241 -257,-662 0,-422 257,-663 258,-241 708,-241 450,0 709,242 260,243 260,662 0,421 -258,662 -257,241 -711,241 z m -631,268 q -406,100 -633,378 -226,279 -226,679 0,559 398,884 399,325 1092,325 697,0 1094,-325 397,-325 397,-884 0,-400 -227,-679 -226,-278 -629,-378 456,-106 710,-416 255,-309 255,-755 Q 3634,634 3220,271 2806,-91 2034,-91 1263,-91 848,271 434,634 434,1313 q 0,446 256,755 257,310 713,416 z m -231,997 q 0,-362 226,-565 227,-203 636,-203 407,0 636,203 230,203 230,565 0,363 -230,566 -229,203 -636,203 -409,0 -636,-203 -226,-203 -226,-566 z"
               transform="scale(0.015625)" style="fill: currentColor;" />
          </defs>
          <use
             xlink:href="#DejaVuSans-31"
             id="use68" />
          <use
             xlink:href="#DejaVuSans-38"
             x="63.623047"
             id="use69" />
          <use
             xlink:href="#DejaVuSans-30"
             x="127.24609"
             id="use70" />
          <use
             xlink:href="#DejaVuSans-b0"
             x="190.86914"
             id="use71" />
        </g>
      </g>
      <g
         id="text_14">
        <!-- 195° -->
        <g
           transform="matrix(0.1,0,0,-0.1,176.35372,344.08651)"
           id="g75">
          <use
             xlink:href="#DejaVuSans-31"
             id="use72" />
          <use
             xlink:href="#DejaVuSans-39"
             x="63.623047"
             id="use73" />
          <use
             xlink:href="#DejaVuSans-35"
             x="127.24609"
             id="use74" />
          <use
             xlink:href="#DejaVuSans-b0"
             x="190.86914"
             id="use75" />
        </g>
      </g>
      <g
         id="text_15">
        <!-- 210° -->
        <g
           transform="matrix(0.1,0,0,-0.1,145.60025,331.34801)"
           id="g79">
          <use
             xlink:href="#DejaVuSans-32"
             id="use76" />
          <use
             xlink:href="#DejaVuSans-31"
             x="63.623047"
             id="use77" />
          <use
             xlink:href="#DejaVuSans-30"
             x="127.24609"
             id="use78" />
          <use
             xlink:href="#DejaVuSans-b0"
             x="190.86914"
             id="use79" />
        </g>
      </g>
      <g
         id="text_16">
        <!-- 225° -->
        <g
           transform="matrix(0.1,0,0,-0.1,119.19165,311.08397)"
           id="g83">
          <use
             xlink:href="#DejaVuSans-32"
             id="use80" />
          <use
             xlink:href="#DejaVuSans-32"
             x="63.623047"
             id="use81" />
          <use
             xlink:href="#DejaVuSans-35"
             x="127.24609"
             id="use82" />
          <use
             xlink:href="#DejaVuSans-b0"
             x="190.86914"
             id="use83" />
        </g>
      </g>
      <g
         id="text_17">
        <!-- 240° -->
        <g
           transform="matrix(0.1,0,0,-0.1,98.927619,284.67537)"
           id="g87">
          <use
             xlink:href="#DejaVuSans-32"
             id="use84" />
          <use
             xlink:href="#DejaVuSans-34"
             x="63.623047"
             id="use85" />
          <use
             xlink:href="#DejaVuSans-30"
             x="127.24609"
             id="use86" />
          <use
             xlink:href="#DejaVuSans-b0"
             x="190.86914"
             id="use87" />
        </g>
      </g>
      <g
         id="text_18">
        <!-- 255° -->
        <g
           transform="matrix(0.1,0,0,-0.1,86.189116,253.92191)"
           id="g91">
          <use
             xlink:href="#DejaVuSans-32"
             id="use88" />
          <use
             xlink:href="#DejaVuSans-35"
             x="63.623047"
             id="use89" />
          <use
             xlink:href="#DejaVuSans-35"
             x="127.24609"
             id="use90" />
          <use
             xlink:href="#DejaVuSans-b0"
             x="190.86914"
             id="use91" />
        </g>
      </g>
      <g
         id="text_19">
        <!-- 270° -->
        <g
           transform="matrix(0.1,0,0,-0.1,81.84425,220.91937)"
           id="g95">
          <use
             xlink:href="#DejaVuSans-32"
             id="use92" />
          <use
             xlink:href="#DejaVuSans-37"
             x="63.623047"
             id="use93" />
          <use
             xlink:href="#DejaVuSans-30"
             x="127.24609"
             id="use94" />
          <use
             xlink:href="#DejaVuSans-b0"
             x="190.86914"
             id="use95" />
        </g>
      </g>
      <g
         id="text_20">
        <!-- 285° -->
        <g
           transform="matrix(0.1,0,0,-0.1,86.189116,187.91684)"
           id="g99">
          <use
             xlink:href="#DejaVuSans-32"
             id="use96" />
          <use
             xlink:href="#DejaVuSans-38"
             x="63.623047"
             id="use97" />
          <use
             xlink:href="#DejaVuSans-35"
             x="127.24609"
             id="use98" />
          <use
             xlink:href="#DejaVuSans-b0"
             x="190.86914"
             id="use99" />
        </g>
      </g>
      <g
         id="text_21">
        <!-- 300° -->
        <g
           transform="matrix(0.1,0,0,-0.1,98.927619,157.16337)"
           id="g103">
          <use
             xlink:href="#DejaVuSans-33"
             id="use100" />
          <use
             xlink:href="#DejaVuSans-30"
             x="63.623047"
             id="use101" />
          <use
             xlink:href="#DejaVuSans-30"
             x="127.24609"
             id="use102" />
          <use
             xlink:href="#DejaVuSans-b0"
             x="190.86914"
             id="use103" />
        </g>
      </g>
      <g
         id="text_22">
        <!-- 315° -->
        <g
           transform="matrix(0.1,0,0,-0.1,119.19165,130.75477)"
           id="g107">
          <use
             xlink:href="#DejaVuSans-33"
             id="use104" />
          <use
             xlink:href="#DejaVuSans-31"
             x="63.623047"
             id="use105" />
          <use
             xlink:href="#DejaVuSans-35"
             x="127.24609"
             id="use106" />
          <use
             xlink:href="#DejaVuSans-b0"
             x="190.86914"
             id="use107" />
        </g>
      </g>
      <g
         id="text_23">
        <!-- 330° -->
        <g
           transform="matrix(0.1,0,0,-0.1,145.60025,110.49074)"
           id="g111">
          <use
             xlink:href="#DejaVuSans-33"
             id="use108" />
          <use
             xlink:href="#DejaVuSans-33"
             x="63.623047"
             id="use109" />
          <use
             xlink:href="#DejaVuSans-30"
             x="127.24609"
             id="use110" />
          <use
             xlink:href="#DejaVuSans-b0"
             x="190.86914"
             id="use111" />
        </g>
      </g>
      <g
         id="text_24">
        <!-- 345° -->
        <g
           transform="matrix(0.1,0,0,-0.1,176.35372,97.752241)"
           id="g115">
          <use
             xlink:href="#DejaVuSans-33"
             id="use112" />
          <use
             xlink:href="#DejaVuSans-34"
             x="63.623047"
             id="use113" />
          <use
             xlink:href="#DejaVuSans-35"
             x="127.24609"
             id="use114" />
          <use
             xlink:href="#DejaVuSans-b0"
             x="190.86914"
             id="use115" />
        </g>
      </g>
      <g
         id="text_25">
        <!-- N -->
        <g
           transform="matrix(0.12,0,0,-0.12,216.37875,77.32725)"
           id="g116">
          <defs
             id="defs115">
            <path
               id="DejaVuSans-Bold-4e"
               d="M 588,4666 H 1931 L 3628,1466 V 4666 H 4769 V 0 H 3425 L 1728,3200 V 0 H 588 Z"
               transform="scale(0.015625)" style="fill: currentColor;" />
          </defs>
          <use
             xlink:href="#DejaVuSans-Bold-4e"
             id="use116" />
        </g>
      </g>
      <g
         id="text_26">
        <!-- O -->
        <g
           transform="matrix(0.12,0,0,-0.12,360.44306,221.47125)"
           id="g117">
          <defs
             id="defs116">
            <path
               id="DejaVuSans-Bold-4f"
               d="m 2719,3878 q -550,0 -853,-406 -303,-406 -303,-1144 0,-734 303,-1141 303,-406 853,-406 553,0 856,406 303,407 303,1141 0,738 -303,1144 -303,406 -856,406 z m 0,872 q 1125,0 1762,-644 638,-643 638,-1778 Q 5119,1197 4481,553 3844,-91 2719,-91 1597,-91 958,553 319,1197 319,2328 q 0,1135 639,1778 639,644 1761,644 z"
               transform="scale(0.015625)" style="fill: currentColor;" />
          </defs>
          <use
             xlink:href="#DejaVuSans-Bold-4f"
             id="use117" />
        </g>
      </g>
      <g
         id="text_27">
        <!-- Z -->
        <g
           transform="matrix(0.12,0,0,-0.12,217.04906,365.61525)"
           id="g118">
          <defs
             id="defs117">
            <path
               id="DejaVuSans-Bold-5a"
               d="M 359,4666 H 4281 V 3938 L 1778,909 H 4353 V 0 H 288 V 728 L 2791,3756 H 359 Z"
               transform="scale(0.015625)" style="fill: currentColor;" />
          </defs>
          <use
             xlink:href="#DejaVuSans-Bold-5a"
             id="use118" />
        </g>
      </g>
      <g
         id="text_28"
         transform="translate(-4.1701099,-0.13451967)">
        <!-- W -->
        <g
           transform="matrix(0.12,0,0,-0.12,70.638187,221.47125)"
           id="g119">
          <defs
             id="defs118">
            <path
               id="DejaVuSans-Bold-57"
               d="m 191,4666 h 1153 l 806,-3391 800,3391 h 1159 l 800,-3391 807,3391 H 6859 L 5759,0 H 4372 L 3525,3547 2688,0 H 1300 Z"
               transform="scale(0.015625)" style="fill: currentColor;" />
          </defs>
          <use
             xlink:href="#DejaVuSans-Bold-57"
             id="use119" />
        </g>
      </g>
    </g>
  </g>
  <defs
     id="defs119">
    <clipPath
       id="p4a0b5bc692">
      <rect
         x="55.080002"
         y="51.84"
         width="332.64001"
         height="332.64001"
         id="rect119" />
    </clipPath>
  </defs>
</svg>
