<?xml version="1.0" encoding="UTF-8"?>
<svg width="503px" height="158px" viewBox="0 0 503 158" version="1.1" xmlns="http://www.w3.org/2000/svg" xmlns:xlink="http://www.w3.org/1999/xlink">
    <title>coderdojo-leiden-logo</title>
    <style type="text/css">
        #coderdojo-leiden-logo {
            color: #000;
        }
        @media (prefers-color-scheme: dark) {
            #coderdojo-leiden-logo {
                color: #fff !important;
            }
        }
    </style>
    <g id="coderdojo-leiden-logo" stroke="none" stroke-width="1" fill="none" fill-rule="evenodd">
        <g id="Group" transform="translate(45.8228, 30.5072)" fill-rule="nonzero">
            <g id="g26" transform="translate(205.2792, 31.6089) scale(-1, 1) rotate(-180) translate(-205.2792, -31.6089)" fill="currentColor">
                <g id="g30" transform="translate(0, 0)">
                    <g id="g32-Clipped" transform="translate(0, 0)">
                        <g id="g32" transform="translate(0, 0)">
                            <g id="g38-Clipped" transform="translate(0, 0)">
                                <g id="g38" transform="translate(0, 0)">
                                    <path d="M24.2946661,21.7607995 C24.9279994,23.1274661 25.6599994,24.3274661 26.594666,25.0607994 C27.1933327,25.5261327 28.1933326,25.859466 29.2599993,25.859466 C30.4599992,25.859466 31.5933325,25.4941327 32.4919992,24.5941327 C33.3586658,23.7274661 33.7253325,22.6941328 33.7253325,21.0621328 C33.7253325,19.1954662 32.7599992,15.8301329 29.6586659,12.8634663 C26.6933327,9.96346642 23.1613328,8.59813312 17.4959996,8.59813312 C12.197333,8.59813312 8.06533313,10.3634664 4.86666655,13.5967997 C0.166666663,18.2954662 6.73983657e-15,23.6607994 6.73983657e-15,32.7261325 C6.73983657e-15,41.788799 0.166666663,47.1554655 4.86666655,51.854132 C8.06533313,55.086132 12.197333,56.8527986 17.4959996,56.8527986 C23.1613328,56.8527986 26.6933327,55.4861319 29.6586659,52.5874654 C32.7599992,49.6221321 33.7253325,46.2554655 33.7253325,44.3901322 C33.7253325,42.7554656 33.3586658,41.7234656 32.4919992,40.856799 C31.5933325,39.956799 30.4599992,39.5901323 29.2599993,39.5901323 C28.1933326,39.5901323 27.1933327,39.9234657 26.594666,40.3901323 C25.6599994,41.1221323 24.9279994,42.3234656 24.2946661,43.6887989 C22.7946661,47.0207988 20.5613328,48.5874655 17.2959996,48.5874655 C14.8639996,48.5874655 13.0306663,47.5887988 11.6639997,46.0554655 C9.69866642,43.7887989 9.33066643,41.1901323 9.33066643,32.7261325 C9.33066643,24.2607994 9.69866642,21.6621328 11.6639997,19.3954662 C13.0306663,17.8621329 14.8639996,16.8621329 17.2959996,16.8621329 C20.5613328,16.8621329 22.7946661,18.4287995 24.2946661,21.7607995" id="path44"></path>
                                    <path d="M50.5303987,46.0550655 C48.7650654,44.0563989 48.2303988,41.7897323 48.2303988,32.7257325 C48.2303988,23.6603994 48.7650654,21.4270661 50.5303987,19.4283995 C51.863732,17.9283996 53.9623987,16.8617329 56.4957319,16.8617329 C59.0277319,16.8617329 61.1277318,17.9283996 62.4610651,19.4283995 C64.2263984,21.4270661 64.761065,23.6603994 64.761065,32.7257325 C64.761065,41.7897323 64.2263984,44.0563989 62.4610651,46.0550655 C61.1277318,47.5883988 59.0277319,48.5870655 56.4957319,48.5870655 C53.9623987,48.5870655 51.863732,47.5883988 50.5303987,46.0550655 M43.7663989,13.5963997 C39.066399,18.2963995 38.8997324,23.6603994 38.8997324,32.7257325 C38.8997324,41.7897323 39.066399,47.1550655 43.7663989,51.8550654 C46.9650655,55.085732 50.9970654,56.8537319 56.4957319,56.8537319 C61.9943985,56.8537319 66.0263983,55.085732 69.2250649,51.8550654 C73.9250648,47.1550655 74.0917315,41.7897323 74.0917315,32.7257325 C74.0917315,23.6603994 73.9250648,18.2963995 69.2250649,13.5963997 C66.0263983,10.3630664 61.9943985,8.59773312 56.4957319,8.59773312 C50.9970654,8.59773312 46.9650655,10.3630664 43.7663989,13.5963997" id="path46"></path>
                                    <path d="M90.7973311,17.2619996 L97.8626642,17.2619996 C100.994664,17.2619996 103.261331,18.2619996 104.794664,20.1953328 C106.526664,22.3606661 106.726664,25.260666 106.726664,32.7259992 C106.726664,40.189999 106.526664,43.0886656 104.794664,45.2553322 C103.261331,47.1873322 100.994664,48.1873321 97.8626642,48.1873321 L90.7973311,48.1873321 L90.7973311,17.2619996 Z M82.7666646,10.2966664 C81.4666646,11.5966664 81.4666646,13.2966663 81.4666646,14.663333 L81.4666646,50.7886654 C81.4666646,52.1539987 81.4666646,53.8526653 82.7666646,55.1526653 C84.0653312,56.4539986 85.7666645,56.4539986 87.1319978,56.4539986 L98.6613309,56.4539986 C105.127997,56.4539986 109.426664,54.387332 112.991997,49.5206654 C115.991997,45.4566655 116.05733,40.589999 116.05733,32.7259992 C116.05733,24.860666 115.991997,19.9953328 112.991997,15.9299996 C109.426664,11.0646664 105.127997,8.99799978 98.6613309,8.99799978 L87.1319978,8.99799978 C85.7666645,8.99799978 84.0653312,8.99799978 82.7666646,10.2966664" id="path48"></path>
                                    <path d="M124.798664,10.2971997 C123.498664,11.5971997 123.498664,13.2971997 123.498664,14.662533 L123.498664,50.7878654 C123.498664,52.154532 123.498664,53.8531987 124.798664,55.1531986 C126.098664,56.4531986 127.798663,56.4531986 129.163997,56.4531986 L149.49333,56.4531986 C151.458663,56.4531986 152.22533,56.3851986 153.12533,55.9198653 C154.291996,55.3198653 155.091996,53.9531987 155.091996,52.3211987 C155.091996,50.6878654 154.291996,49.3211988 153.12533,48.7211988 C152.22533,48.2545321 151.458663,48.1878655 149.49333,48.1878655 L132.82933,48.1878655 L132.82933,37.0571991 L146.29333,37.0571991 C148.259996,37.0571991 149.026663,36.9918657 149.926663,36.5238658 C151.09333,35.9251991 151.891996,34.5571991 151.891996,32.9251992 C151.891996,31.2918659 151.09333,29.9265326 149.926663,29.3251993 C149.026663,28.8598659 148.259996,28.7931993 146.29333,28.7931993 L132.82933,28.7931993 L132.82933,17.2625329 L149.49333,17.2625329 C151.458663,17.2625329 152.22533,17.1958662 153.12533,16.7291996 C154.291996,16.1291996 155.091996,14.7638663 155.091996,13.130533 C155.091996,11.4971998 154.291996,10.1305331 153.12533,9.53186643 C152.22533,9.06386644 151.458663,8.99719978 149.49333,8.99719978 L129.163997,8.99719978 C127.798663,8.99719978 126.098664,8.99719978 124.798664,10.2971997" id="path50"></path>
                                    <path d="M179.859862,35.6917324 C183.925195,35.6917324 186.525195,38.2237324 186.525195,41.9237323 C186.525195,45.6557322 183.925195,48.1877321 179.859862,48.1877321 L171.061196,48.1877321 L171.061196,35.6917324 L179.859862,35.6917324 Z M171.061196,14.9970663 C171.061196,12.8303997 170.995862,12.063733 170.429196,10.9303997 C169.727862,9.63039976 168.229196,8.73039978 166.395863,8.73039978 C164.562529,8.73039978 163.063863,9.63039976 162.363863,10.9303997 C161.797196,12.063733 161.730529,12.8303997 161.730529,14.9970663 L161.730529,50.7877321 C161.730529,52.1543987 161.730529,53.8530653 163.030529,55.1530653 C164.330529,56.4530653 166.030529,56.4530653 167.395862,56.4530653 L180.359862,56.4530653 C190.057195,56.4530653 195.789195,49.8877321 195.789195,41.9557323 C195.789195,36.2903991 192.657195,31.6250659 187.191862,29.4263993 L194.289195,17.0623996 C195.355862,15.195733 195.722528,14.4303996 195.789195,13.3303997 C195.855862,11.863733 195.022528,10.3303997 193.490528,9.4637331 C192.690529,8.99706644 191.857195,8.73039978 191.023862,8.73039978 C188.523862,8.73039978 187.557195,10.4317331 186.358529,12.5303997 L177.559862,27.893066 L171.061196,27.893066 L171.061196,14.9970663 Z" id="path52"></path>
                                    <path d="M211.828528,18.6617329 C211.828528,16.1297329 212.195195,14.6630663 212.928528,13.297733 C213.528528,12.2310664 214.261861,11.2977331 214.961861,10.5963997 C216.395195,9.1977331 216.827195,8.53106645 217.128528,7.46573315 C217.461861,6.26439984 217.228528,4.69773322 216.061861,3.49906658 C215.193861,2.63373327 213.995195,2.23239994 212.928528,2.23239994 C211.595195,2.23239994 210.595195,2.63373327 208.696528,4.56573322 C206.731195,6.56573317 205.497862,8.03106647 204.497862,10.0643997 C203.431195,12.297733 203.164528,14.729733 203.164528,18.2283995 L203.164528,47.2217322 C203.164528,50.7203987 203.431195,53.153732 204.497862,55.3857319 C205.497862,57.4190652 206.731195,58.8857319 208.696528,60.8843985 C210.595195,62.8177318 211.595195,63.2177318 212.928528,63.2177318 C213.995195,63.2177318 215.193861,62.8177318 216.061861,61.9510651 C217.228528,60.7510651 217.461861,59.1857319 217.128528,57.9857319 C216.827195,56.9190652 216.395195,56.2523986 214.961861,54.853732 C214.261861,54.153732 213.528528,53.2203987 212.928528,52.153732 C212.195195,50.7883987 211.828528,49.3203988 211.828528,46.7883988 L211.828528,18.6617329 Z" id="path54"></path>
                                    <path d="M233.027728,17.2619996 L240.093061,17.2619996 C243.225061,17.2619996 245.491727,18.2619996 247.02506,20.1953328 C248.75706,22.3606661 248.95706,25.260666 248.95706,32.7259992 C248.95706,40.189999 248.75706,43.0886656 247.02506,45.2553322 C245.491727,47.1873322 243.225061,48.1873321 240.093061,48.1873321 L233.027728,48.1873321 L233.027728,17.2619996 Z M224.997061,10.2966664 C223.697061,11.5966664 223.697061,13.2966663 223.697061,14.663333 L223.697061,50.7886654 C223.697061,52.1539987 223.697061,53.8526653 224.997061,55.1526653 C226.295728,56.4539986 227.997061,56.4539986 229.362394,56.4539986 L240.891727,56.4539986 C247.358394,56.4539986 251.65706,54.387332 255.222394,49.5206654 C258.222394,45.4566655 258.287727,40.589999 258.287727,32.7259992 C258.287727,24.860666 258.222394,19.9953328 255.222394,15.9299996 C251.65706,11.0646664 247.358394,8.99799978 240.891727,8.99799978 L229.362394,8.99799978 C227.997061,8.99799978 226.295728,8.99799978 224.997061,10.2966664" id="path56"></path>
                                    <path d="M275.72706,46.0550655 C273.961726,44.0563989 273.42706,41.7897323 273.42706,32.7257325 C273.42706,23.6603994 273.961726,21.4270661 275.72706,19.4283995 C277.060393,17.9283996 279.15906,16.8617329 281.692393,16.8617329 C284.225726,16.8617329 286.324393,17.9283996 287.657726,19.4283995 C289.423059,21.4270661 289.957726,23.6603994 289.957726,32.7257325 C289.957726,41.7897323 289.423059,44.0563989 287.657726,46.0550655 C286.324393,47.5883988 284.225726,48.5870655 281.692393,48.5870655 C279.15906,48.5870655 277.060393,47.5883988 275.72706,46.0550655 M268.96306,13.5963997 C264.26306,18.2963995 264.096393,23.6603994 264.096393,32.7257325 C264.096393,41.7897323 264.26306,47.1550655 268.96306,51.8550654 C272.161727,55.085732 276.193726,56.8537319 281.692393,56.8537319 C287.191059,56.8537319 291.223059,55.085732 294.421726,51.8550654 C299.121726,47.1550655 299.288393,41.7897323 299.288393,32.7257325 C299.288393,23.6603994 299.121726,18.2963995 294.421726,13.5963997 C291.223059,10.3630664 287.191059,8.59773312 281.692393,8.59773312 C276.193726,8.59773312 272.161727,10.3630664 268.96306,13.5963997" id="path58"></path>
                                    <path d="M319.259592,24.993866 L319.259592,50.4551987 C319.259592,52.620532 319.326259,53.3871987 319.892925,54.520532 C320.592925,55.8191986 322.091592,56.7191986 323.924925,56.7191986 C325.758259,56.7191986 327.256925,55.8191986 327.956925,54.520532 C328.523592,53.3871987 328.590258,52.620532 328.590258,50.4551987 L328.590258,24.5938661 C328.590258,14.1298663 320.659592,8.59786645 311.794259,8.59786645 C308.195592,8.59786645 305.163592,9.3645331 302.596926,11.2311997 C301.096926,12.3298664 300.498259,13.464533 300.498259,14.9298663 C300.498259,16.0631996 301.030259,17.2298662 301.796926,17.9285329 C302.564926,18.5951995 303.430259,18.8951995 304.330259,18.8951995 C305.263592,18.8951995 306.163592,18.5618662 307.495592,17.8965329 C309.062259,17.1298662 310.127592,16.8618662 311.794259,16.8618662 C316.327592,16.8618662 319.259592,19.5285328 319.259592,24.993866" id="path60"></path>
                                    <path d="M346.827191,46.0550655 C345.061858,44.0563989 344.527191,41.7897323 344.527191,32.7257325 C344.527191,23.6603994 345.061858,21.4270661 346.827191,19.4283995 C348.160525,17.9283996 350.259191,16.8617329 352.792525,16.8617329 C355.324524,16.8617329 357.424524,17.9283996 358.757858,19.4283995 C360.523191,21.4270661 361.057858,23.6603994 361.057858,32.7257325 C361.057858,41.7897323 360.523191,44.0563989 358.757858,46.0550655 C357.424524,47.5883988 355.324524,48.5870655 352.792525,48.5870655 C350.259191,48.5870655 348.160525,47.5883988 346.827191,46.0550655 M340.063191,13.5963997 C335.363192,18.2963995 335.196525,23.6603994 335.196525,32.7257325 C335.196525,41.7897323 335.363192,47.1550655 340.063191,51.8550654 C343.261858,55.085732 347.293858,56.8537319 352.792525,56.8537319 C358.291191,56.8537319 362.323191,55.085732 365.521858,51.8550654 C370.221857,47.1550655 370.388524,41.7897323 370.388524,32.7257325 C370.388524,23.6603994 370.221857,18.2963995 365.521858,13.5963997 C362.323191,10.3630664 358.291191,8.59773312 352.792525,8.59773312 C347.293858,8.59773312 343.261858,10.3630664 340.063191,13.5963997" id="path62"></path>
                                    <path d="M380.62799,46.7881322 C380.62799,49.3201321 380.262657,50.7881321 379.527991,52.1534654 C378.929324,53.220132 378.195991,54.1534653 377.494657,54.8534653 C376.062657,56.2534653 375.629324,56.9201319 375.329324,57.9854652 C374.995991,59.1854652 375.229324,60.7521318 376.395991,61.9507985 C377.262657,62.8174651 378.461324,63.2174651 379.527991,63.2174651 C380.861324,63.2174651 381.861324,62.8174651 383.761324,60.8841318 C385.726657,58.8854652 386.95999,57.4201319 387.95999,55.3854653 C389.026657,53.1534653 389.29199,50.7201321 389.29199,47.2214655 L389.29199,18.2281329 C389.29199,14.7294663 389.026657,12.2974664 387.95999,10.0641331 C386.95999,8.03213313 385.726657,6.5654665 383.761324,4.56546655 C381.861324,2.6334666 380.861324,2.23213328 379.527991,2.23213328 C378.461324,2.23213328 377.262657,2.6334666 376.395991,3.49879991 C375.229324,4.69879988 374.995991,6.26413318 375.329324,7.46546648 C375.629324,8.53213312 376.062657,9.19879977 377.494657,10.5961331 C378.195991,11.2974664 378.929324,12.2307997 379.527991,13.2974663 C380.262657,14.6627996 380.62799,16.1294663 380.62799,18.6614662 L380.62799,46.7881322 Z" id="path64"></path>
                                    <path d="M404.69439,26.4599993 C401.495723,26.4599993 398.895723,29.0586659 398.895723,32.2586659 C398.895723,35.4573324 401.495723,38.0573324 404.69439,38.0573324 C407.893056,38.0573324 410.55839,35.4573324 410.55839,32.2586659 C410.55839,29.0586659 407.893056,26.4599993 404.69439,26.4599993 M408.327723,13.229333 L405.427723,4.46533322 C404.79439,2.56533327 404.461057,1.86666662 403.66239,1.06666664 C402.961057,0.366666657 401.995723,0 400.929057,0 C399.329057,0 396.83039,1.03333331 396.497057,3.43199991 C396.33039,4.49866655 396.497057,5.33199987 397.129057,7.23199982 L400.029057,15.9959996 C400.66239,17.8959996 400.995723,18.5959995 401.79439,19.3946662 C402.495723,20.0959995 403.461057,20.4613328 404.527723,20.4613328 C406.12639,20.4613328 408.62639,19.4293328 408.959723,17.0293329 C409.12639,15.9626663 408.959723,15.129333 408.327723,13.229333" id="path66"></path>
                                </g>
                            </g>
                        </g>
                    </g>
                </g>
            </g>
            <g id="Leiden" transform="translate(147.8842, 76.2838)" fill="currentColor">
                <path d="M5.22070312,3.1640625 L5.22070312,21.9199219 L15.8027344,21.9199219 C16.6464844,21.9199219 17.2939453,22.125 17.7451172,22.5351562 C18.1962891,22.9453125 18.421875,23.4609375 18.421875,24.0820312 C18.421875,24.7148438 18.1992188,25.2275391 17.7539062,25.6201172 C17.3085938,26.0126953 16.6582031,26.2089844 15.8027344,26.2089844 L3.19921875,26.2089844 C2.0625,26.2089844 1.24511719,25.9570312 0.747070312,25.453125 C0.249023438,24.9492188 0,24.1347656 0,23.0097656 L0,3.1640625 C0,2.109375 0.237304688,1.31835938 0.711914062,0.791015625 C1.18652344,0.263671875 1.81054688,0 2.58398438,0 C3.36914062,0 4.00488281,0.260742188 4.49121094,0.782226562 C4.97753906,1.30371094 5.22070312,2.09765625 5.22070312,3.1640625 Z" id="Path"></path>
                <path d="M34.9101562,18.0703125 L25.5234375,18.0703125 C25.5351562,19.1601562 25.7548828,20.1210938 26.1826172,20.953125 C26.6103516,21.7851562 27.1787109,22.4121094 27.8876953,22.8339844 C28.5966797,23.2558594 29.3789062,23.4667969 30.234375,23.4667969 C30.8085938,23.4667969 31.3330078,23.3994141 31.8076172,23.2646484 C32.2822266,23.1298828 32.7421875,22.9189453 33.1875,22.6318359 C33.6328125,22.3447266 34.0429688,22.0371094 34.4179688,21.7089844 C34.7929688,21.3808594 35.2792969,20.9355469 35.8769531,20.3730469 C36.1230469,20.1621094 36.4746094,20.0566406 36.9316406,20.0566406 C37.4238281,20.0566406 37.8222656,20.1914062 38.1269531,20.4609375 C38.4316406,20.7304688 38.5839844,21.1113281 38.5839844,21.6035156 C38.5839844,22.0371094 38.4140625,22.5439453 38.0742188,23.1240234 C37.734375,23.7041016 37.2216797,24.2607422 36.5361328,24.7939453 C35.8505859,25.3271484 34.9892578,25.7695312 33.9521484,26.1210938 C32.9150391,26.4726562 31.7226562,26.6484375 30.375,26.6484375 C27.2929688,26.6484375 24.8964844,25.7695312 23.1855469,24.0117188 C21.4746094,22.2539062 20.6191406,19.8691406 20.6191406,16.8574219 C20.6191406,15.4394531 20.8300781,14.1240234 21.2519531,12.9111328 C21.6738281,11.6982422 22.2890625,10.6582031 23.0976562,9.79101562 C23.90625,8.92382812 24.9023438,8.25878906 26.0859375,7.79589844 C27.2695312,7.33300781 28.5820312,7.1015625 30.0234375,7.1015625 C31.8984375,7.1015625 33.5068359,7.49707031 34.8486328,8.28808594 C36.1904297,9.07910156 37.1953125,10.1015625 37.8632812,11.3554688 C38.53125,12.609375 38.8652344,13.8867188 38.8652344,15.1875 C38.8652344,16.3945312 38.5195312,17.1767578 37.828125,17.5341797 C37.1367188,17.8916016 36.1640625,18.0703125 34.9101562,18.0703125 Z M25.5234375,15.3457031 L34.2246094,15.3457031 C34.1074219,13.7050781 33.6650391,12.4775391 32.8974609,11.6630859 C32.1298828,10.8486328 31.1191406,10.4414062 29.8652344,10.4414062 C28.6699219,10.4414062 27.6884766,10.8544922 26.9208984,11.6806641 C26.1533203,12.5068359 25.6875,13.7285156 25.5234375,15.3457031 Z" id="Shape"></path>
                <path d="M47.7070312,9.86132812 L47.7070312,23.7304688 C47.7070312,24.6914062 47.4785156,25.4179688 47.0214844,25.9101562 C46.5644531,26.4023438 45.984375,26.6484375 45.28125,26.6484375 C44.578125,26.6484375 44.0068359,26.3964844 43.5673828,25.8925781 C43.1279297,25.3886719 42.9082031,24.6679688 42.9082031,23.7304688 L42.9082031,10.0019531 C42.9082031,9.05273438 43.1279297,8.33789062 43.5673828,7.85742188 C44.0068359,7.37695312 44.578125,7.13671875 45.28125,7.13671875 C45.984375,7.13671875 46.5644531,7.37695312 47.0214844,7.85742188 C47.4785156,8.33789062 47.7070312,9.00585938 47.7070312,9.86132812 Z M45.3339844,4.90429688 C44.6660156,4.90429688 44.0947266,4.69921875 43.6201172,4.2890625 C43.1455078,3.87890625 42.9082031,3.29882813 42.9082031,2.54882812 C42.9082031,1.86914062 43.1513672,1.30957031 43.6376953,0.870117188 C44.1240234,0.430664062 44.6894531,0.2109375 45.3339844,0.2109375 C45.9550781,0.2109375 46.5058594,0.41015625 46.9863281,0.80859375 C47.4667969,1.20703125 47.7070312,1.78710938 47.7070312,2.54882812 C47.7070312,3.28710938 47.4726562,3.86425781 47.0039062,4.28027344 C46.5351562,4.69628906 45.9785156,4.90429688 45.3339844,4.90429688 Z" id="Shape"></path>
                <path d="M65.8125,23.90625 L65.8125,23.4316406 C65.1679688,24.1699219 64.5322266,24.7705078 63.9052734,25.2333984 C63.2783203,25.6962891 62.5986328,26.0478516 61.8662109,26.2880859 C61.1337891,26.5283203 60.3339844,26.6484375 59.4667969,26.6484375 C58.3183594,26.6484375 57.2548828,26.4052734 56.2763672,25.9189453 C55.2978516,25.4326172 54.4511719,24.7382812 53.7363281,23.8359375 C53.0214844,22.9335938 52.4794922,21.8730469 52.1103516,20.6542969 C51.7412109,19.4355469 51.5566406,18.1171875 51.5566406,16.6992188 C51.5566406,13.6992188 52.2890625,11.3613281 53.7539062,9.68554688 C55.21875,8.00976562 57.1464844,7.171875 59.5371094,7.171875 C60.9199219,7.171875 62.0859375,7.40917969 63.0351562,7.88378906 C63.984375,8.35839844 64.9101562,9.08789062 65.8125,10.0722656 L65.8125,2.98828125 C65.8125,2.00390625 66.0087891,1.25976562 66.4013672,0.755859375 C66.7939453,0.251953125 67.3535156,0 68.0800781,0 C68.8066406,0 69.3662109,0.231445313 69.7587891,0.694335938 C70.1513672,1.15722656 70.3476562,1.83984375 70.3476562,2.7421875 L70.3476562,23.90625 C70.3476562,24.8203125 70.1367188,25.5058594 69.7148438,25.9628906 C69.2929688,26.4199219 68.7480469,26.6484375 68.0800781,26.6484375 C67.4238281,26.6484375 66.8818359,26.4111328 66.4541016,25.9365234 C66.0263672,25.4619141 65.8125,24.7851562 65.8125,23.90625 Z M56.3730469,16.8574219 C56.3730469,18.1582031 56.5751953,19.265625 56.9794922,20.1796875 C57.3837891,21.09375 57.9375,21.7822266 58.640625,22.2451172 C59.34375,22.7080078 60.1113281,22.9394531 60.9433594,22.9394531 C61.7871094,22.9394531 62.5576172,22.7197266 63.2548828,22.2802734 C63.9521484,21.8408203 64.5087891,21.1669922 64.9248047,20.2587891 C65.3408203,19.3505859 65.5488281,18.2167969 65.5488281,16.8574219 C65.5488281,15.5800781 65.3408203,14.4814453 64.9248047,13.5615234 C64.5087891,12.6416016 63.9462891,11.9384766 63.2373047,11.4521484 C62.5283203,10.9658203 61.7519531,10.7226562 60.9082031,10.7226562 C60.0292969,10.7226562 59.2441406,10.9716797 58.5527344,11.4697266 C57.8613281,11.9677734 57.3251953,12.6826172 56.9443359,13.6142578 C56.5634766,14.5458984 56.3730469,15.6269531 56.3730469,16.8574219 Z" id="Shape"></path>
                <path d="M88.5585938,18.0703125 L79.171875,18.0703125 C79.1835938,19.1601562 79.4033203,20.1210938 79.8310547,20.953125 C80.2587891,21.7851562 80.8271484,22.4121094 81.5361328,22.8339844 C82.2451172,23.2558594 83.0273438,23.4667969 83.8828125,23.4667969 C84.4570312,23.4667969 84.9814453,23.3994141 85.4560547,23.2646484 C85.9306641,23.1298828 86.390625,22.9189453 86.8359375,22.6318359 C87.28125,22.3447266 87.6914062,22.0371094 88.0664062,21.7089844 C88.4414062,21.3808594 88.9277344,20.9355469 89.5253906,20.3730469 C89.7714844,20.1621094 90.1230469,20.0566406 90.5800781,20.0566406 C91.0722656,20.0566406 91.4707031,20.1914062 91.7753906,20.4609375 C92.0800781,20.7304688 92.2324219,21.1113281 92.2324219,21.6035156 C92.2324219,22.0371094 92.0625,22.5439453 91.7226562,23.1240234 C91.3828125,23.7041016 90.8701172,24.2607422 90.1845703,24.7939453 C89.4990234,25.3271484 88.6376953,25.7695312 87.6005859,26.1210938 C86.5634766,26.4726562 85.3710938,26.6484375 84.0234375,26.6484375 C80.9414062,26.6484375 78.5449219,25.7695312 76.8339844,24.0117188 C75.1230469,22.2539062 74.2675781,19.8691406 74.2675781,16.8574219 C74.2675781,15.4394531 74.4785156,14.1240234 74.9003906,12.9111328 C75.3222656,11.6982422 75.9375,10.6582031 76.7460938,9.79101562 C77.5546875,8.92382812 78.5507812,8.25878906 79.734375,7.79589844 C80.9179688,7.33300781 82.2304688,7.1015625 83.671875,7.1015625 C85.546875,7.1015625 87.1552734,7.49707031 88.4970703,8.28808594 C89.8388672,9.07910156 90.84375,10.1015625 91.5117188,11.3554688 C92.1796875,12.609375 92.5136719,13.8867188 92.5136719,15.1875 C92.5136719,16.3945312 92.1679688,17.1767578 91.4765625,17.5341797 C90.7851562,17.8916016 89.8125,18.0703125 88.5585938,18.0703125 Z M79.171875,15.3457031 L87.8730469,15.3457031 C87.7558594,13.7050781 87.3134766,12.4775391 86.5458984,11.6630859 C85.7783203,10.8486328 84.7675781,10.4414062 83.5136719,10.4414062 C82.3183594,10.4414062 81.3369141,10.8544922 80.5693359,11.6806641 C79.8017578,12.5068359 79.3359375,13.7285156 79.171875,15.3457031 Z" id="Shape"></path>
                <path d="M100.916016,9.79101562 L100.916016,10.3710938 C101.759766,9.2578125 102.682617,8.44042969 103.68457,7.91894531 C104.686523,7.39746094 105.837891,7.13671875 107.138672,7.13671875 C108.404297,7.13671875 109.535156,7.41210938 110.53125,7.96289062 C111.527344,8.51367188 112.271484,9.29296875 112.763672,10.3007812 C113.080078,10.8867188 113.285156,11.5195312 113.378906,12.1992188 C113.472656,12.8789062 113.519531,13.7460938 113.519531,14.8007812 L113.519531,23.7304688 C113.519531,24.6914062 113.299805,25.4179688 112.860352,25.9101562 C112.420898,26.4023438 111.849609,26.6484375 111.146484,26.6484375 C110.431641,26.6484375 109.851562,26.3964844 109.40625,25.8925781 C108.960938,25.3886719 108.738281,24.6679688 108.738281,23.7304688 L108.738281,15.7324219 C108.738281,14.1503906 108.518555,12.9404297 108.079102,12.1025391 C107.639648,11.2646484 106.763672,10.8457031 105.451172,10.8457031 C104.595703,10.8457031 103.816406,11.1005859 103.113281,11.6103516 C102.410156,12.1201172 101.894531,12.8203125 101.566406,13.7109375 C101.332031,14.4257812 101.214844,15.7617188 101.214844,17.71875 L101.214844,23.7304688 C101.214844,24.703125 100.989258,25.4326172 100.538086,25.9189453 C100.086914,26.4052734 99.5039062,26.6484375 98.7890625,26.6484375 C98.0976562,26.6484375 97.5292969,26.3964844 97.0839844,25.8925781 C96.6386719,25.3886719 96.4160156,24.6679688 96.4160156,23.7304688 L96.4160156,9.86132812 C96.4160156,8.94726562 96.6152344,8.26464844 97.0136719,7.81347656 C97.4121094,7.36230469 97.9570312,7.13671875 98.6484375,7.13671875 C99.0703125,7.13671875 99.4511719,7.23632812 99.7910156,7.43554688 C100.130859,7.63476562 100.40332,7.93359375 100.608398,8.33203125 C100.813477,8.73046875 100.916016,9.21679688 100.916016,9.79101562 Z" id="Path"></path>
            </g>
        </g>
    </g>
</svg>